<?xml version="1.0" encoding="UTF-8"?>
<svg width="291px" height="48px" viewBox="0 0 291 48" version="1.1" xmlns="http://www.w3.org/2000/svg" xmlns:xlink="http://www.w3.org/1999/xlink">
    <!-- Generator: Sketch 52 (66869) - http://www.bohemiancoding.com/sketch -->
    <title>LOGO</title>
    <desc>Created with Sketch.</desc>
    <g id="Tarkio" stroke="none" stroke-width="1" fill="none" fill-rule="evenodd">
        <g id="Home-(Tarkio)" transform="translate(-159.000000, -37.000000)" fill="#1A1F24">
            <g id="HEADER" transform="translate(77.000000, 30.000000)">
                <g id="LOGO" transform="translate(82.000000, 7.000000)">
                    <path d="M5.13,21 L5.13,19.02 L8.61,19.02 L8.61,2.94 L7.29,2.94 C4.65,2.94 4.08,3.81 2.61,8.28 L1.2,8.28 L1.2,1.26 L19.11,1.26 L19.11,8.28 L17.7,8.28 C16.23,3.81 15.66,2.94 13.02,2.94 L11.7,2.94 L11.7,19.02 L15.18,19.02 L15.18,21 L5.13,21 Z M35.01,19.02 L33.3,14.07 L26.16,14.07 L24.36,19.02 L26.85,19.02 L26.85,21 L19.92,21 L19.92,19.02 L22.05,19.02 L28.92,1.14 L31.95,1.14 L38.4,19.02 L41.13,19.02 L41.13,21 L31.89,21 L31.89,19.02 L35.01,19.02 Z M29.79,4.26 L26.82,12.33 L32.7,12.33 L29.91,4.26 L29.79,4.26 Z M47.79,12.3 L47.79,19.02 L51.03,19.02 L51.03,21 L41.37,21 L41.37,19.02 L44.7,19.02 L44.7,3.24 L41.37,3.24 L41.37,1.26 L51.03,1.26 C57.06,1.26 58.68,3.9 58.68,6.39 C58.68,8.43 57.48,10.56 53.67,11.19 L53.67,11.46 C56.73,12.12 57.63,13.62 57.78,15.69 L57.96,17.88 C58.05,18.87 58.32,19.23 58.86,19.23 C59.34,19.23 59.7,18.84 60.18,17.97 L61.5,18.6 C60.87,20.25 59.76,21.33 58.14,21.33 C56.37,21.33 54.69,20.52 54.63,17.79 L54.57,15.39 C54.51,13.35 54.06,12.3 51.21,12.3 L47.79,12.3 Z M47.79,10.5 L50.97,10.5 C54.18,10.5 55.14,9.06 55.14,6.63 C55.14,4.47 54.18,3.24 51.33,3.24 L47.79,3.24 L47.79,10.5 Z M68.34,14.04 L68.34,19.02 L71.19,19.02 L71.19,21 L61.92,21 L61.92,19.02 L65.25,19.02 L65.25,3.24 L61.92,3.24 L61.92,1.26 L71.19,1.26 L71.19,3.24 L68.34,3.24 L68.34,11.61 L76.35,3.24 L73.77,3.24 L73.77,1.26 L81.63,1.26 L81.63,3.24 L79.14,3.24 L72.93,9.45 L80.01,19.02 L82.5,19.02 L82.5,21 L73.74,21 L73.74,19.02 L76.26,19.02 L70.89,11.49 L68.34,14.04 Z M83.94,21 L83.94,19.02 L87.27,19.02 L87.27,3.24 L83.94,3.24 L83.94,1.26 L93.69,1.26 L93.69,3.24 L90.36,3.24 L90.36,19.02 L93.69,19.02 L93.69,21 L83.94,21 Z M105.69,21.48 C100.32,21.48 96.03,17.16 96.03,11.13 C96.03,5.25 100.47,0.78 105.69,0.78 C111.06,0.78 115.35,5.07 115.35,11.13 C115.35,17.04 110.91,21.48 105.69,21.48 Z M105.69,19.5 C109.62,19.5 111.75,16.38 111.75,11.13 C111.75,5.88 109.62,2.76 105.69,2.76 C101.76,2.76 99.63,5.91 99.63,11.13 C99.63,16.35 101.76,19.5 105.69,19.5 Z M122.91,21 L122.91,19.02 L126.24,19.02 L126.24,3.24 L122.91,3.24 L122.91,1.26 L139.98,1.26 L139.98,7.83 L138.54,7.83 C137.28,3.99 136.77,3.24 134.46,3.24 L129.33,3.24 L129.33,10.35 L131.04,10.35 C133.26,10.35 133.68,9.99 134.1,7.29 L135.69,7.29 L135.69,15.27 L134.1,15.27 C133.74,12.45 133.26,12.03 131.04,12.03 L129.33,12.03 L129.33,19.02 L132.99,19.02 L132.99,21 L122.91,21 Z M152.49,21.48 C147.45,21.48 144.75,18.81 144.75,15.03 L144.75,3.24 L141.87,3.24 L141.87,1.26 L150.78,1.26 L150.78,3.24 L147.84,3.24 L147.84,14.04 C147.84,17.85 149.76,19.32 153.42,19.32 C155.04,19.32 156.12,18.78 156.99,17.91 C158.01,16.89 158.22,15.57 158.22,13.32 L158.22,3.24 L155.13,3.24 L155.13,1.26 L163.26,1.26 L163.26,3.24 L160.44,3.24 L160.44,15.03 C160.44,18.42 157.65,21.48 152.49,21.48 Z M181.53,21.48 L170.37,5.25 L170.1,5.25 L170.1,19.02 L173.22,19.02 L173.22,21 L164.85,21 L164.85,19.02 L167.88,19.02 L167.88,3.24 L164.85,3.24 L164.85,1.26 L171.39,1.26 L181.32,15.66 L181.59,15.66 L181.59,3.24 L178.47,3.24 L178.47,1.26 L186.84,1.26 L186.84,3.24 L183.81,3.24 L183.81,21.48 L181.53,21.48 Z M188.46,21 L188.46,19.02 L191.79,19.02 L191.79,3.24 L188.46,3.24 L188.46,1.26 L196.92,1.26 C204.3,1.26 208.08,5.16 208.08,10.83 C208.08,16.29 204.75,21 197.19,21 L188.46,21 Z M194.88,19.02 L197.22,19.02 C202.26,19.02 204.48,16.83 204.48,10.83 C204.48,5.58 202.23,3.24 196.92,3.24 L194.88,3.24 L194.88,19.02 Z" id="TARKIO-FUND"></path>
                    <path d="M1.944,45 L0.912,45 L0.912,38.664 L1.944,38.664 L1.944,39.624 C2.544,39.024 3.276,38.532 4.224,38.532 C5.292,38.532 5.748,38.988 5.964,39.648 C6.576,39.048 7.356,38.532 8.304,38.532 C9.6,38.532 10.14,39.288 10.14,40.428 L10.14,45 L9.108,45 L9.108,40.656 C9.108,39.816 8.832,39.42 8.004,39.42 C7.296,39.42 6.708,39.816 6.048,40.44 L6.048,45 L5.016,45 L5.016,40.656 C5.016,39.816 4.74,39.42 3.912,39.42 C3.216,39.42 2.616,39.816 1.944,40.44 L1.944,45 Z M13.32,45.096 C12.228,45.096 11.532,44.52 11.532,43.5 C11.532,42.216 12.624,41.304 15.768,40.86 L15.768,40.572 C15.768,39.78 15.348,39.396 14.568,39.396 C13.608,39.396 12.9,39.816 12.276,40.356 L11.736,39.708 C12.468,39.036 13.416,38.532 14.676,38.532 C16.188,38.532 16.788,39.324 16.788,40.644 L16.788,43.44 C16.788,44.208 16.836,44.676 16.968,45 L15.912,45 C15.828,44.736 15.768,44.484 15.768,44.124 C15.06,44.784 14.268,45.096 13.32,45.096 Z M13.62,44.28 C14.46,44.28 15.18,43.932 15.768,43.356 L15.768,41.58 C13.356,41.964 12.552,42.552 12.552,43.344 C12.552,43.956 12.96,44.28 13.62,44.28 Z M19.596,45 L18.552,45 L18.552,38.664 L19.596,38.664 L19.596,39.612 C20.148,39.072 20.94,38.532 21.972,38.532 C23.184,38.532 23.844,39.228 23.844,40.428 L23.844,45 L22.812,45 L22.812,40.656 C22.812,39.816 22.452,39.42 21.648,39.42 C20.892,39.42 20.256,39.816 19.596,40.44 L19.596,45 Z M27.012,45.096 C25.92,45.096 25.224,44.52 25.224,43.5 C25.224,42.216 26.316,41.304 29.46,40.86 L29.46,40.572 C29.46,39.78 29.04,39.396 28.26,39.396 C27.3,39.396 26.592,39.816 25.968,40.356 L25.428,39.708 C26.16,39.036 27.108,38.532 28.368,38.532 C29.88,38.532 30.48,39.324 30.48,40.644 L30.48,43.44 C30.48,44.208 30.528,44.676 30.66,45 L29.604,45 C29.52,44.736 29.46,44.484 29.46,44.124 C28.752,44.784 27.96,45.096 27.012,45.096 Z M27.312,44.28 C28.152,44.28 28.872,43.932 29.46,43.356 L29.46,41.58 C27.048,41.964 26.244,42.552 26.244,43.344 C26.244,43.956 26.652,44.28 27.312,44.28 Z M34.596,47.436 C32.46,47.436 31.536,46.824 31.536,45.864 C31.536,45.216 31.98,44.736 32.688,44.46 C32.328,44.292 32.148,44.028 32.148,43.656 C32.148,43.248 32.484,42.9 32.94,42.636 C32.328,42.24 31.968,41.604 31.968,40.812 C31.968,39.48 33.036,38.532 34.548,38.532 C35.328,38.532 35.976,38.796 36.42,39.192 C36.804,38.904 37.404,38.664 37.92,38.604 L37.92,39.516 C37.572,39.516 37.152,39.576 36.78,39.72 C36.984,40.008 37.104,40.38 37.104,40.812 C37.104,42.18 36.024,43.068 34.548,43.068 C34.176,43.068 33.864,43.008 33.54,42.912 C33.276,43.032 33.096,43.188 33.096,43.404 C33.096,43.668 33.3,43.788 33.972,43.848 L35.268,43.956 C36.876,44.064 37.692,44.58 37.692,45.6 C37.692,46.8 36.432,47.436 34.596,47.436 Z M34.56,42.312 C35.532,42.312 36.144,41.748 36.144,40.836 C36.144,39.912 35.568,39.336 34.548,39.336 C33.564,39.336 32.952,39.924 32.952,40.836 C32.952,41.748 33.588,42.312 34.56,42.312 Z M34.728,46.656 C35.988,46.656 36.744,46.272 36.744,45.696 C36.744,45.132 36.324,44.88 34.992,44.784 L33.792,44.7 L33.432,44.664 C32.82,44.88 32.496,45.276 32.496,45.708 C32.496,46.344 33.156,46.656 34.728,46.656 Z M41.652,45.132 C40.152,45.132 38.784,44.04 38.784,41.832 C38.784,39.528 40.32,38.532 41.652,38.532 C43.152,38.532 44.292,39.588 44.292,41.88 L44.292,42.096 L39.816,42.096 C39.852,43.524 40.68,44.292 41.724,44.292 C42.636,44.292 43.152,43.92 43.632,43.26 L44.232,43.788 C43.644,44.628 42.84,45.132 41.652,45.132 Z M39.84,41.292 L43.308,41.292 C43.224,40.164 42.684,39.396 41.64,39.396 C40.788,39.396 39.984,39.984 39.84,41.292 Z M48,45.096 C46.548,45.096 45.42,44.052 45.42,41.844 C45.42,39.636 46.572,38.532 48.12,38.532 C48.888,38.532 49.608,38.916 50.088,39.468 L50.088,36.12 L51.12,36.12 L51.12,43.44 C51.12,44.208 51.168,44.676 51.312,45 L50.232,45 C50.16,44.796 50.088,44.424 50.088,44.1 C49.584,44.652 48.948,45.096 48,45.096 Z M48.252,44.244 C48.984,44.244 49.56,43.848 50.088,43.272 L50.088,40.368 C49.536,39.744 48.936,39.408 48.264,39.408 C47.16,39.408 46.452,40.188 46.452,41.856 C46.452,43.476 47.232,44.244 48.252,44.244 Z M58.776,45.096 C57.996,45.096 57.336,44.748 56.796,44.184 L56.796,45 L55.764,45 L55.764,36.12 L56.796,36.12 L56.796,39.552 C57.276,39.012 57.936,38.532 58.884,38.532 C60.336,38.532 61.464,39.612 61.464,41.82 C61.464,44.028 60.324,45.096 58.776,45.096 Z M58.632,44.256 C59.736,44.256 60.432,43.512 60.432,41.832 C60.432,40.212 59.664,39.42 58.644,39.42 C57.912,39.42 57.324,39.816 56.796,40.392 L56.796,43.296 C57.348,43.92 57.96,44.256 58.632,44.256 Z M63.312,47.436 C62.748,47.436 62.4,47.364 62.124,47.28 L62.364,46.452 C62.544,46.5 62.856,46.56 63.3,46.56 C63.948,46.56 64.26,46.284 64.512,45.66 L64.752,45.036 L62.304,38.664 L63.396,38.664 L65.256,43.788 L65.28,43.788 L67.14,38.664 L68.184,38.664 L65.472,45.72 C65.04,46.836 64.548,47.436 63.312,47.436 Z M73.956,45 L72.456,45 L72.456,36.12 L78.048,36.12 L78.048,37.512 L73.956,37.512 L73.956,39.888 L76.92,39.888 L76.92,41.22 L73.956,41.22 L73.956,45 Z M80.688,45 L79.212,45 L79.212,38.628 L80.688,38.628 L80.688,39.672 L80.712,39.672 C81.108,39.036 81.792,38.508 83.004,38.508 L83.1,38.508 L83.052,39.864 C82.98,39.852 82.74,39.84 82.656,39.84 C81.708,39.84 81.108,40.284 80.688,40.968 L80.688,45 Z M86.904,45.132 C85.356,45.132 83.796,44.148 83.796,41.82 C83.796,39.468 85.344,38.508 86.904,38.508 C88.452,38.508 90.012,39.468 90.012,41.82 C90.012,44.148 88.452,45.132 86.904,45.132 Z M86.904,43.896 C87.972,43.896 88.524,43.128 88.524,41.82 C88.524,40.632 88.02,39.768 86.904,39.768 C85.836,39.768 85.284,40.536 85.284,41.82 C85.284,43.032 85.776,43.896 86.904,43.896 Z M92.796,45 L91.32,45 L91.32,38.628 L92.796,38.628 L92.796,39.648 C93.276,39.096 94.02,38.508 95.076,38.508 C96.24,38.508 96.96,39.108 96.96,40.368 L96.96,45 L95.484,45 L95.484,40.788 C95.484,40.092 95.196,39.732 94.524,39.732 C93.876,39.732 93.336,40.056 92.796,40.56 L92.796,45 Z M101.016,45.084 C99.396,45.084 99.048,44.484 99.048,43.332 L99.048,39.804 L97.944,39.804 L97.944,38.628 L99.048,38.628 L99.048,36.408 L100.524,36.408 L100.524,38.628 L102.168,38.628 L102.168,39.804 L100.524,39.804 L100.524,42.96 C100.524,43.644 100.728,43.92 101.46,43.92 C101.676,43.92 101.952,43.884 102.096,43.836 L102.096,45 C101.94,45.036 101.388,45.084 101.016,45.084 Z M109.68,45.168 C107.916,45.168 106.668,44.256 106.104,42.912 L107.292,42.288 C107.82,43.332 108.636,43.836 109.74,43.836 C110.82,43.836 111.552,43.488 111.552,42.684 C111.552,41.916 111,41.556 109.536,41.124 C107.82,40.62 106.44,40.152 106.44,38.46 C106.44,36.948 107.676,35.952 109.476,35.952 C111.228,35.952 112.26,36.816 112.8,37.86 L111.708,38.616 C111.18,37.728 110.424,37.32 109.464,37.32 C108.48,37.32 107.916,37.68 107.916,38.328 C107.916,39.156 108.552,39.432 110.004,39.864 C111.684,40.356 113.028,40.908 113.028,42.576 C113.028,44.028 111.792,45.168 109.68,45.168 Z M116.952,45.084 C115.332,45.084 114.984,44.484 114.984,43.332 L114.984,39.804 L113.88,39.804 L113.88,38.628 L114.984,38.628 L114.984,36.408 L116.46,36.408 L116.46,38.628 L118.104,38.628 L118.104,39.804 L116.46,39.804 L116.46,42.96 C116.46,43.644 116.664,43.92 117.396,43.92 C117.612,43.92 117.888,43.884 118.032,43.836 L118.032,45 C117.876,45.036 117.324,45.084 116.952,45.084 Z M120.792,45 L119.316,45 L119.316,38.628 L120.792,38.628 L120.792,39.672 L120.816,39.672 C121.212,39.036 121.896,38.508 123.108,38.508 L123.204,38.508 L123.156,39.864 C123.084,39.852 122.844,39.84 122.76,39.84 C121.812,39.84 121.212,40.284 120.792,40.968 L120.792,45 Z M126.972,45.132 C125.376,45.132 123.9,44.16 123.9,41.82 C123.9,39.396 125.616,38.508 126.936,38.508 C128.364,38.508 129.732,39.36 129.732,41.952 L129.732,42.3 L125.376,42.3 C125.436,43.452 126.144,43.956 127.08,43.956 C127.908,43.956 128.388,43.68 128.868,43.212 L129.648,43.98 C128.988,44.712 128.112,45.132 126.972,45.132 Z M125.4,41.196 L128.376,41.196 C128.292,40.224 127.812,39.708 126.924,39.708 C126.204,39.708 125.544,40.116 125.4,41.196 Z M133.74,45.132 C132.144,45.132 130.668,44.16 130.668,41.82 C130.668,39.396 132.384,38.508 133.704,38.508 C135.132,38.508 136.5,39.36 136.5,41.952 L136.5,42.3 L132.144,42.3 C132.204,43.452 132.912,43.956 133.848,43.956 C134.676,43.956 135.156,43.68 135.636,43.212 L136.416,43.98 C135.756,44.712 134.88,45.132 133.74,45.132 Z M132.168,41.196 L135.144,41.196 C135.06,40.224 134.58,39.708 133.692,39.708 C132.972,39.708 132.312,40.116 132.168,41.196 Z M140.268,45.084 C138.648,45.084 138.3,44.484 138.3,43.332 L138.3,39.804 L137.196,39.804 L137.196,38.628 L138.3,38.628 L138.3,36.408 L139.776,36.408 L139.776,38.628 L141.42,38.628 L141.42,39.804 L139.776,39.804 L139.776,42.96 C139.776,43.644 139.98,43.92 140.712,43.92 C140.928,43.92 141.204,43.884 141.348,43.836 L141.348,45 C141.192,45.036 140.64,45.084 140.268,45.084 Z M149.292,45.168 C147.012,45.168 145.392,43.596 145.392,40.536 C145.392,37.56 147.06,35.952 149.292,35.952 C151.356,35.952 152.34,37.092 152.736,38.712 L151.308,39.12 C150.972,37.944 150.456,37.344 149.28,37.344 C147.78,37.344 146.904,38.508 146.904,40.524 C146.904,42.636 147.804,43.8 149.304,43.8 C150.456,43.8 151.104,43.224 151.44,41.892 L152.868,42.216 C152.436,43.98 151.344,45.168 149.292,45.168 Z M155.64,45.096 C154.608,45.096 153.84,44.52 153.84,43.464 C153.84,42.084 155.016,41.16 157.992,40.824 L157.992,40.632 C157.992,39.996 157.656,39.72 156.948,39.72 C156.06,39.72 155.34,40.152 154.8,40.584 L154.08,39.66 C154.764,39.036 155.832,38.508 157.152,38.508 C158.856,38.508 159.444,39.324 159.444,40.812 L159.444,43.44 C159.444,44.208 159.492,44.676 159.624,45 L158.136,45 C158.052,44.736 157.992,44.544 157.992,44.184 C157.344,44.844 156.588,45.096 155.64,45.096 Z M156.18,43.956 C156.936,43.956 157.524,43.668 157.992,43.224 L157.992,41.82 C156.228,42.06 155.292,42.492 155.292,43.188 C155.292,43.692 155.64,43.956 156.18,43.956 Z M162.504,47.4 L161.028,47.4 L161.028,38.628 L162.504,38.628 L162.504,39.468 C162.924,38.964 163.584,38.508 164.532,38.508 C165.984,38.508 167.052,39.6 167.052,41.808 C167.052,44.016 165.96,45.096 164.328,45.096 C163.644,45.096 162.972,44.82 162.504,44.292 L162.504,47.4 Z M164.004,43.92 C165.12,43.92 165.576,43.236 165.576,41.82 C165.576,40.476 165,39.768 164.052,39.768 C163.44,39.768 162.852,40.152 162.504,40.572 L162.504,43.128 C162.9,43.644 163.476,43.92 164.004,43.92 Z M169.908,45 L168.42,45 L168.42,38.628 L169.908,38.628 L169.908,45 Z M169.92,37.524 L168.408,37.524 L168.408,36.24 L169.92,36.24 L169.92,37.524 Z M174.096,45.084 C172.476,45.084 172.128,44.484 172.128,43.332 L172.128,39.804 L171.024,39.804 L171.024,38.628 L172.128,38.628 L172.128,36.408 L173.604,36.408 L173.604,38.628 L175.248,38.628 L175.248,39.804 L173.604,39.804 L173.604,42.96 C173.604,43.644 173.808,43.92 174.54,43.92 C174.756,43.92 175.032,43.884 175.176,43.836 L175.176,45 C175.02,45.036 174.468,45.084 174.096,45.084 Z M177.852,45.096 C176.82,45.096 176.052,44.52 176.052,43.464 C176.052,42.084 177.228,41.16 180.204,40.824 L180.204,40.632 C180.204,39.996 179.868,39.72 179.16,39.72 C178.272,39.72 177.552,40.152 177.012,40.584 L176.292,39.66 C176.976,39.036 178.044,38.508 179.364,38.508 C181.068,38.508 181.656,39.324 181.656,40.812 L181.656,43.44 C181.656,44.208 181.704,44.676 181.836,45 L180.348,45 C180.264,44.736 180.204,44.544 180.204,44.184 C179.556,44.844 178.8,45.096 177.852,45.096 Z M178.392,43.956 C179.148,43.956 179.736,43.668 180.204,43.224 L180.204,41.82 C178.44,42.06 177.504,42.492 177.504,43.188 C177.504,43.692 177.852,43.956 178.392,43.956 Z M184.788,45 L183.3,45 L183.3,36.12 L184.788,36.12 L184.788,45 Z M191.052,45 L189.696,45 L189.696,36.12 L191.676,36.12 L194.052,43.164 L194.076,43.164 L196.38,36.12 L198.396,36.12 L198.396,45 L196.944,45 L196.944,38.376 L196.92,38.376 C196.788,38.988 196.596,39.564 196.392,40.188 L194.664,45 L193.332,45 L191.616,40.188 C191.4,39.552 191.268,39.168 191.076,38.316 L191.052,38.316 L191.052,45 Z M201.624,45.096 C200.592,45.096 199.824,44.52 199.824,43.464 C199.824,42.084 201,41.16 203.976,40.824 L203.976,40.632 C203.976,39.996 203.64,39.72 202.932,39.72 C202.044,39.72 201.324,40.152 200.784,40.584 L200.064,39.66 C200.748,39.036 201.816,38.508 203.136,38.508 C204.84,38.508 205.428,39.324 205.428,40.812 L205.428,43.44 C205.428,44.208 205.476,44.676 205.608,45 L204.12,45 C204.036,44.736 203.976,44.544 203.976,44.184 C203.328,44.844 202.572,45.096 201.624,45.096 Z M202.164,43.956 C202.92,43.956 203.508,43.668 203.976,43.224 L203.976,41.82 C202.212,42.06 201.276,42.492 201.276,43.188 C201.276,43.692 201.624,43.956 202.164,43.956 Z M208.5,45 L207.024,45 L207.024,38.628 L208.5,38.628 L208.5,39.648 C208.98,39.096 209.724,38.508 210.78,38.508 C211.944,38.508 212.664,39.108 212.664,40.368 L212.664,45 L211.188,45 L211.188,40.788 C211.188,40.092 210.9,39.732 210.228,39.732 C209.58,39.732 209.04,40.056 208.5,40.56 L208.5,45 Z M215.64,45.096 C214.608,45.096 213.84,44.52 213.84,43.464 C213.84,42.084 215.016,41.16 217.992,40.824 L217.992,40.632 C217.992,39.996 217.656,39.72 216.948,39.72 C216.06,39.72 215.34,40.152 214.8,40.584 L214.08,39.66 C214.764,39.036 215.832,38.508 217.152,38.508 C218.856,38.508 219.444,39.324 219.444,40.812 L219.444,43.44 C219.444,44.208 219.492,44.676 219.624,45 L218.136,45 C218.052,44.736 217.992,44.544 217.992,44.184 C217.344,44.844 216.588,45.096 215.64,45.096 Z M216.18,43.956 C216.936,43.956 217.524,43.668 217.992,43.224 L217.992,41.82 C216.228,42.06 215.292,42.492 215.292,43.188 C215.292,43.692 215.64,43.956 216.18,43.956 Z M223.428,47.472 C221.232,47.472 220.356,46.836 220.356,45.912 C220.356,45.276 220.752,44.82 221.4,44.568 C221.076,44.4 220.908,44.136 220.908,43.788 C220.908,43.308 221.292,42.912 221.772,42.624 C221.124,42.216 220.764,41.568 220.764,40.788 C220.764,39.48 221.772,38.508 223.44,38.508 C224.316,38.508 224.964,38.796 225.396,39.18 C225.804,38.856 226.452,38.604 226.98,38.556 L226.98,39.756 C226.692,39.756 226.284,39.792 225.864,39.924 C226.008,40.152 226.092,40.452 226.092,40.788 C226.092,42.12 225.096,43.056 223.44,43.056 C223.08,43.056 222.864,43.008 222.552,42.924 C222.36,43.032 222.228,43.164 222.228,43.332 C222.228,43.584 222.396,43.668 222.96,43.716 L224.088,43.788 C225.972,43.908 226.716,44.412 226.716,45.528 C226.716,46.836 225.396,47.472 223.428,47.472 Z M223.464,42.036 C224.268,42.036 224.748,41.616 224.748,40.836 C224.748,40.044 224.292,39.612 223.452,39.612 C222.636,39.612 222.156,40.056 222.156,40.836 C222.156,41.616 222.648,42.036 223.464,42.036 Z M223.656,46.404 C224.736,46.404 225.408,46.116 225.408,45.66 C225.408,45.204 225.084,45.036 223.788,44.952 L222.684,44.88 C222.552,44.88 222.432,44.868 222.3,44.844 C221.88,45.036 221.712,45.336 221.712,45.66 C221.712,46.224 222.36,46.404 223.656,46.404 Z M230.784,45.132 C229.188,45.132 227.712,44.16 227.712,41.82 C227.712,39.396 229.428,38.508 230.748,38.508 C232.176,38.508 233.544,39.36 233.544,41.952 L233.544,42.3 L229.188,42.3 C229.248,43.452 229.956,43.956 230.892,43.956 C231.72,43.956 232.2,43.68 232.68,43.212 L233.46,43.98 C232.8,44.712 231.924,45.132 230.784,45.132 Z M229.212,41.196 L232.188,41.196 C232.104,40.224 231.624,39.708 230.736,39.708 C230.016,39.708 229.356,40.116 229.212,41.196 Z M236.316,45 L234.84,45 L234.84,38.628 L236.316,38.628 L236.316,39.504 C236.808,38.964 237.528,38.508 238.5,38.508 C239.568,38.508 239.988,38.928 240.24,39.552 C240.744,39 241.5,38.508 242.472,38.508 C243.768,38.508 244.332,39.288 244.332,40.428 L244.332,45 L242.856,45 L242.856,40.8 C242.856,40.092 242.652,39.768 241.956,39.768 C241.356,39.768 240.876,40.104 240.324,40.596 L240.324,45 L238.848,45 L238.848,40.8 C238.848,40.092 238.644,39.768 237.948,39.768 C237.36,39.768 236.868,40.104 236.316,40.596 L236.316,45 Z M248.64,45.132 C247.044,45.132 245.568,44.16 245.568,41.82 C245.568,39.396 247.284,38.508 248.604,38.508 C250.032,38.508 251.4,39.36 251.4,41.952 L251.4,42.3 L247.044,42.3 C247.104,43.452 247.812,43.956 248.748,43.956 C249.576,43.956 250.056,43.68 250.536,43.212 L251.316,43.98 C250.656,44.712 249.78,45.132 248.64,45.132 Z M247.068,41.196 L250.044,41.196 C249.96,40.224 249.48,39.708 248.592,39.708 C247.872,39.708 247.212,40.116 247.068,41.196 Z M254.184,45 L252.708,45 L252.708,38.628 L254.184,38.628 L254.184,39.648 C254.664,39.096 255.408,38.508 256.464,38.508 C257.628,38.508 258.348,39.108 258.348,40.368 L258.348,45 L256.872,45 L256.872,40.788 C256.872,40.092 256.584,39.732 255.912,39.732 C255.264,39.732 254.724,40.056 254.184,40.56 L254.184,45 Z M262.404,45.084 C260.784,45.084 260.436,44.484 260.436,43.332 L260.436,39.804 L259.332,39.804 L259.332,38.628 L260.436,38.628 L260.436,36.408 L261.912,36.408 L261.912,38.628 L263.556,38.628 L263.556,39.804 L261.912,39.804 L261.912,42.96 C261.912,43.644 262.116,43.92 262.848,43.92 C263.064,43.92 263.34,43.884 263.484,43.836 L263.484,45 C263.328,45.036 262.776,45.084 262.404,45.084 Z M265.668,46.344 L264.984,46.344 L265.404,45 L264.768,45 L264.768,43.44 L266.424,43.44 L266.424,44.796 L265.668,46.344 Z M272.88,45 L271.368,45 L271.368,36.12 L272.88,36.12 L272.88,45 Z M276.3,45 L274.824,45 L274.824,38.628 L276.3,38.628 L276.3,39.648 C276.78,39.096 277.524,38.508 278.58,38.508 C279.744,38.508 280.464,39.108 280.464,40.368 L280.464,45 L278.988,45 L278.988,40.788 C278.988,40.092 278.7,39.732 278.028,39.732 C277.38,39.732 276.84,40.056 276.3,40.56 L276.3,45 Z M284.664,45.132 C283.188,45.132 281.688,44.148 281.688,41.82 C281.688,39.384 283.332,38.508 284.748,38.508 C286.332,38.508 287.004,39.384 287.388,40.368 L286.14,40.812 C285.888,40.092 285.432,39.744 284.724,39.744 C283.884,39.744 283.176,40.296 283.176,41.82 C283.176,43.176 283.728,43.92 284.7,43.92 C285.372,43.92 285.84,43.716 286.188,42.816 L287.412,43.26 C286.956,44.28 286.2,45.132 284.664,45.132 Z M290.244,45 L288.588,45 L288.588,43.44 L290.244,43.44 L290.244,45 Z" id="managed-by-Front-Str"></path>
                </g>
            </g>
        </g>
    </g>
</svg>